<?xml version="1.0" encoding="UTF-8" standalone="no"?>
<!-- Generator: Adobe Illustrator 16.0.0, SVG Export Plug-In . SVG Version: 6.00 Build 0)  -->

<svg
   xmlns:dc="http://purl.org/dc/elements/1.1/"
   xmlns:cc="http://creativecommons.org/ns#"
   xmlns:rdf="http://www.w3.org/1999/02/22-rdf-syntax-ns#"
   xmlns:svg="http://www.w3.org/2000/svg"
   xmlns="http://www.w3.org/2000/svg"
   xmlns:sodipodi="http://sodipodi.sourceforge.net/DTD/sodipodi-0.dtd"
   xmlns:inkscape="http://www.inkscape.org/namespaces/inkscape"
   version="1.1"
   id="Layer_5"
   x="0px"
   y="0px"
   width="77.375"
   height="56.0625"
   viewBox="0 0 77.375 56.0625"
   enable-background="new 0 0 100 100"
   xml:space="preserve"
   inkscape:version="0.48.4 r9939"
   sodipodi:docname="researchgate2.svg"
   inkscape:export-filename="C:\Users\Thibaut\Downloads\researchgate2.png"
   inkscape:export-xdpi="43.344482"
   inkscape:export-ydpi="43.344482"><metadata
   id="metadata13"><rdf:RDF><cc:Work
       rdf:about=""><dc:format>image/svg+xml</dc:format><dc:type
         rdf:resource="http://purl.org/dc/dcmitype/StillImage" /><dc:title></dc:title></cc:Work></rdf:RDF></metadata><defs
   id="defs11">
	
	
</defs><sodipodi:namedview
   pagecolor="#ffffff"
   bordercolor="#666666"
   borderopacity="1"
   objecttolerance="10"
   gridtolerance="10"
   guidetolerance="10"
   inkscape:pageopacity="0"
   inkscape:pageshadow="2"
   inkscape:window-width="1920"
   inkscape:window-height="1018"
   id="namedview9"
   showgrid="false"
   fit-margin-top="0"
   fit-margin-left="0"
   fit-margin-right="0"
   fit-margin-bottom="0"
   inkscape:zoom="6.675088"
   inkscape:cx="55.444278"
   inkscape:cy="32.316004"
   inkscape:window-x="-8"
   inkscape:window-y="-8"
   inkscape:window-maximized="1"
   inkscape:current-layer="Layer_5" />
<path
   style="fill:#ffffff;fill-opacity:1"
   d="m 59.90625,0 c -3.492,0 -6.39275,0.591 -8.71875,1.75 -2.327,1.159 -4.209,2.86625 -5.625,5.15625 -1.419,2.29 -2.419,5.16875 -3,8.59375 -0.584,3.424 -0.875,7.4015 -0.875,11.9375 0,4.683 0.18675,8.78875 0.59375,12.34375 0.403,3.548 1.21725,6.5215 2.40625,8.9375 1.189,2.419 2.8355,4.268 4.9375,5.5 2.101,1.235 4.81425,1.84375 8.15625,1.84375 2.581,0 4.80725,-0.4785 6.65625,-1.4375 1.849,-0.953 3.432,-2.48175 4.75,-4.59375 l 0.125,0 0,4.96875 8.0625,0 0,-29.09375 -17.6875,0 0,8.03125 7.21875,0 0,5.5 c 0,1.462 -0.2315,2.7285 -0.6875,3.8125 -0.455,1.085 -1.03575,1.9815 -1.71875,2.6875 -0.682,0.705 -1.4035,1.24375 -2.1875,1.59375 -0.786,0.353 -1.5305,0.53125 -2.1875,0.53125 -1.572,0 -2.8245,-0.48975 -3.8125,-1.46875 -0.986,-0.985 -1.75025,-2.414 -2.28125,-4.25 -0.53,-1.838 -0.89275,-4.029 -1.09375,-6.625 -0.201,-2.593 -0.3125,-5.5415 -0.3125,-8.8125 0,-6.751 0.584,-11.579 1.75,-14.5 C 55.539,9.48625 57.4295,8 60.0625,8 c 1.113,0 2.06075,0.298 2.84375,0.875 0.787,0.582 1.4335,1.3065 1.9375,2.1875 0.506,0.882 0.86775,1.88675 1.09375,2.96875 0.229,1.087 0.34375,2.1065 0.34375,3.0625 l 10.46875,0 C 76.75,11.60475 75.4435,7.3845 72.8125,4.4375 70.1795,1.4905 65.87725,0 59.90625,0 z M 0,1.0625 0,55 l 10.9375,0 0,-22.8125 5.78125,0 c 2.248,0 3.83325,0.6025 4.78125,1.8125 0.951,1.211 1.49175,2.883 1.59375,5 L 23.375,49.34375 c 0.053,1.058 0.1585,2.0805 0.3125,3.0625 0.152,0.982 0.53075,1.83875 1.09375,2.59375 l 11.96875,0 0,-0.4375 c -1.014,-0.556 -1.6605,-1.58475 -1.9375,-3.09375 -0.278,-1.513 -0.45,-3.72475 -0.5,-6.59375 -0.051,-2.872 -0.17825,-5.285 -0.40625,-7.25 -0.228,-1.965 -0.643,-3.589 -1.25,-4.875 -0.606,-1.283 -1.48175,-2.2555 -2.59375,-2.9375 -1.116,-0.681 -2.59675,-1.15425 -4.46875,-1.40625 l 0,-0.15625 c 3.088,-0.657 5.37675,-2.11425 6.84375,-4.40625 1.469,-2.292 2.1875,-5.249 2.1875,-8.875 C 34.625,10.28375 33.37275,6.793 30.84375,4.5 28.31275,2.208 24.7445,1.0625 20.1875,1.0625 L 0,1.0625 z m 10.9375,8 5.15625,0 c 5.064,0 7.59375,2.515 7.59375,7.5 0,2.92 -0.709,4.98775 -2.125,6.21875 -1.419,1.236 -3.4315,1.84375 -6.0625,1.84375 l -4.5625,0 0,-15.5625 z"
   id="path5"
   inkscape:connector-curvature="0" />
</svg>